<svg xmlns="http://www.w3.org/2000/svg" xmlns:xlink="http://www.w3.org/1999/xlink" contentStyleType="text/css" height="896px" preserveAspectRatio="none" style="width:624px;height:896px;background:#FFFFFF;" version="1.1" viewBox="0 0 624 896" width="624px" zoomAndPan="magnify"><defs/><g><g id="State_0"><rect fill="#F1F1F1" height="50.2656" rx="12.5" ry="12.5" style="stroke:#181818;stroke-width:0.5;" width="142.6836" x="220.69" y="7"/><line style="stroke:#181818;stroke-width:0.5;" x1="220.69" x2="363.3736" y1="33.2969" y2="33.2969"/><text fill="#000000" font-family="sans-serif" font-size="14" lengthAdjust="spacing" textLength="52.9648" x="265.5494" y="24.9951">State_0</text><text fill="#000000" font-family="sans-serif" font-size="12" lengthAdjust="spacing" textLength="122.6836" x="225.69" y="49.4355">Dit is een wachtstap</text></g><g id="State_10"><rect fill="#F1F1F1" height="50.2656" rx="12.5" ry="12.5" style="stroke:#181818;stroke-width:0.5;" width="127.9941" x="228.03" y="134.26"/><line style="stroke:#181818;stroke-width:0.5;" x1="228.03" x2="356.0241" y1="160.5569" y2="160.5569"/><text fill="#000000" font-family="sans-serif" font-size="14" lengthAdjust="spacing" textLength="61.8721" x="261.091" y="152.2551">State_10</text><text fill="#000000" font-family="sans-serif" font-size="12" lengthAdjust="spacing" textLength="107.9941" x="233.03" y="176.6955">-Spoelen machine</text></g><g id="State_20"><rect fill="#F1F1F1" height="50.2656" rx="12.5" ry="12.5" style="stroke:#181818;stroke-width:0.5;" width="165.2539" x="120.4" y="261.53"/><line style="stroke:#181818;stroke-width:0.5;" x1="120.4" x2="285.6539" y1="287.8269" y2="287.8269"/><text fill="#000000" font-family="sans-serif" font-size="14" lengthAdjust="spacing" textLength="61.8721" x="172.0909" y="279.5251">State_20</text><text fill="#000000" font-family="sans-serif" font-size="12" lengthAdjust="spacing" textLength="145.2539" x="125.4" y="303.9655">-Led klaar om te starten</text></g><g id="State_30"><rect fill="#F1F1F1" height="78.2031" rx="12.5" ry="12.5" style="stroke:#181818;stroke-width:0.5;" width="126.8047" x="237.63" y="388.79"/><line style="stroke:#181818;stroke-width:0.5;" x1="237.63" x2="364.4347" y1="415.0869" y2="415.0869"/><text fill="#000000" font-family="sans-serif" font-size="14" lengthAdjust="spacing" textLength="61.8721" x="270.0963" y="406.7851">State_30</text><text fill="#000000" font-family="sans-serif" font-size="12" lengthAdjust="spacing" textLength="106.8047" x="242.63" y="431.2255">-Verwarmen melk</text><text fill="#000000" font-family="sans-serif" font-size="12" lengthAdjust="spacing" textLength="83.6777" x="242.63" y="445.1943">-Bonen malen</text><text fill="#000000" font-family="sans-serif" font-size="12" lengthAdjust="spacing" textLength="88.3711" x="242.63" y="459.163">-Timer2 #5sec</text></g><g id="State_40"><rect fill="#F1F1F1" height="78.2031" rx="12.5" ry="12.5" style="stroke:#181818;stroke-width:0.5;" width="126.8047" x="318.63" y="544"/><line style="stroke:#181818;stroke-width:0.5;" x1="318.63" x2="445.4347" y1="570.2969" y2="570.2969"/><text fill="#000000" font-family="sans-serif" font-size="14" lengthAdjust="spacing" textLength="61.8721" x="351.0963" y="561.9951">State_40</text><text fill="#000000" font-family="sans-serif" font-size="12" lengthAdjust="spacing" textLength="106.8047" x="323.63" y="586.4355">-Verwarmen melk</text><text fill="#000000" font-family="sans-serif" font-size="12" lengthAdjust="spacing" textLength="70.4297" x="323.63" y="600.4043">-Melk pomp</text><text fill="#000000" font-family="sans-serif" font-size="12" lengthAdjust="spacing" textLength="88.3711" x="323.63" y="614.373">-Timer3 #5sec</text></g><g id="State_50"><rect fill="#F1F1F1" height="64.2344" rx="12.5" ry="12.5" style="stroke:#181818;stroke-width:0.5;" width="108.3711" x="358.84" y="699.2"/><line style="stroke:#181818;stroke-width:0.5;" x1="358.84" x2="467.2111" y1="725.4969" y2="725.4969"/><text fill="#000000" font-family="sans-serif" font-size="14" lengthAdjust="spacing" textLength="61.8721" x="382.0895" y="717.1951">State_50</text><text fill="#000000" font-family="sans-serif" font-size="12" lengthAdjust="spacing" textLength="74.8359" x="363.84" y="741.6355">-Waterpomp</text><text fill="#000000" font-family="sans-serif" font-size="12" lengthAdjust="spacing" textLength="88.3711" x="363.84" y="755.6043">-Timer4 #5sec</text></g><g id="State_60"><rect fill="#F1F1F1" height="50.2656" rx="12.5" ry="12.5" style="stroke:#181818;stroke-width:0.5;" width="143.6094" x="408.23" y="840.43"/><line style="stroke:#181818;stroke-width:0.5;" x1="408.23" x2="551.8394" y1="866.7269" y2="866.7269"/><text fill="#000000" font-family="sans-serif" font-size="14" lengthAdjust="spacing" textLength="61.8721" x="449.0987" y="858.4251">State_60</text><text fill="#000000" font-family="sans-serif" font-size="12" lengthAdjust="spacing" textLength="123.6094" x="413.23" y="882.8655">Wacht op beker weg</text></g><!--link State_0 to State_10--><g id="link_State_0_State_10"><path d="M292.03,57.58 C292.03,79.65 292.03,105.95 292.03,128.01 " fill="none" id="State_0-to-State_10" style="stroke:#181818;stroke-width:1.0;"/><polygon fill="#181818" points="292.03,134.01,296.03,125.01,292.03,129.01,288.03,125.01,292.03,134.01" style="stroke:#181818;stroke-width:1.0;"/><text fill="#000000" font-family="sans-serif" font-size="13" lengthAdjust="spacing" textLength="60.0933" x="293.03" y="100.3269">Power on</text></g><!--link State_10 to State_20--><g id="link_State_10_State_20"><path d="M227.61,164.89 C159.55,171.14 58.84,185.18 35.03,214.53 C6,250.32 58.306,267.4479 113.996,276.3979 " fill="none" id="State_10-to-State_20" style="stroke:#181818;stroke-width:1.0;"/><polygon fill="#181818" points="119.92,277.35,111.6687,271.9726,114.9833,276.5566,110.3993,279.8712,119.92,277.35" style="stroke:#181818;stroke-width:1.0;"/><text fill="#000000" font-family="sans-serif" font-size="13" lengthAdjust="spacing" textLength="484.0532" x="36.03" y="227.5969">Bonen aanwezig &amp; melk aanwezig &amp; voldoende water &amp; water opgewarmt</text></g><!--link State_20 to State_30--><g id="link_State_20_State_30"><path d="M220.32,312.23 C235.16,333.31 253.3354,359.1443 270.4754,383.4843 " fill="none" id="State_20-to-State_30" style="stroke:#181818;stroke-width:1.0;"/><polygon fill="#181818" points="273.93,388.39,272.0186,378.7284,271.0512,384.3019,265.4777,383.3345,273.93,388.39" style="stroke:#181818;stroke-width:1.0;"/><text fill="#000000" font-family="sans-serif" font-size="13" lengthAdjust="spacing" textLength="153.5688" x="253.03" y="354.8569">Start &amp; Beker aanwezig</text></g><!--link State_30 to State_40--><g id="link_State_30_State_40"><path d="M321.26,467.16 C333.58,490.47 346.4739,514.8566 358.8339,538.2166 " fill="none" id="State_30-to-State_40" style="stroke:#181818;stroke-width:1.0;"/><polygon fill="#181818" points="361.64,543.52,360.9665,533.6942,359.3016,539.1005,353.8953,537.4356,361.64,543.52" style="stroke:#181818;stroke-width:1.0;"/><text fill="#000000" font-family="sans-serif" font-size="13" lengthAdjust="spacing" textLength="45.8301" x="345.03" y="510.0669">Timer2</text></g><!--link State_40 to State_50--><g id="link_State_40_State_50"><path d="M390.17,622.52 C395.23,646.38 400.4043,670.7907 405.1543,693.1707 " fill="none" id="State_40-to-State_50" style="stroke:#181818;stroke-width:1.0;"/><polygon fill="#181818" points="406.4,699.04,408.4443,689.4056,405.3619,694.149,400.6186,691.0666,406.4,699.04" style="stroke:#181818;stroke-width:1.0;"/><text fill="#000000" font-family="sans-serif" font-size="13" lengthAdjust="spacing" textLength="45.8301" x="401.03" y="665.2669">Timer3</text></g><!--link State_50 to State_60--><g id="link_State_50_State_60"><path d="M428.91,763.66 C440.75,787.03 453.9899,813.1569 464.8999,834.7069 " fill="none" id="State_50-to-State_60" style="stroke:#181818;stroke-width:1.0;"/><polygon fill="#181818" points="467.61,840.06,467.1136,830.2237,465.3516,835.5991,459.9762,833.8371,467.61,840.06" style="stroke:#181818;stroke-width:1.0;"/><text fill="#000000" font-family="sans-serif" font-size="13" lengthAdjust="spacing" textLength="45.8301" x="453.03" y="806.4969">Timer4</text></g><!--link State_60 to State_10--><g id="link_State_60_State_10"><path d="M501.23,840.1 C520.86,814.86 547.03,773.5 547.03,732.32 C547.03,285.66 547.03,285.66 547.03,285.66 C547.03,252.57 549.25,237.07 525.03,214.53 C500.83,192 422.5117,177.3846 362.2817,168.9246 " fill="none" id="State_60-to-State_10" style="stroke:#181818;stroke-width:1.0;"/><polygon fill="#181818" points="356.34,168.09,364.6961,173.303,361.2914,168.7855,365.8089,165.3807,356.34,168.09" style="stroke:#181818;stroke-width:1.0;"/><text fill="#000000" font-family="sans-serif" font-size="13" lengthAdjust="spacing" textLength="68.8022" x="548.03" y="510.0669">Beker weg</text></g><!--SRC=[TP6nQiCm48RtFCL18PiXZUqC7JgOZYqKN9gngF7X2aiw8OiO-lGzoKuk3dIoVD-l7-bJ6rN4hnqymOkEe4T0T32fqqySe_ARDkD7vaNh2Gr3or0xND0-RIrUiOF1A1M0B4G4tXiYkYLJvimdXaa5cnhG32lKaCl5vcxBXxOOzl1GZtXQGFL_rupUU02Uh5zDSrEvQgepEF8otCHhYLUh-261On83vE4R1mmmORzPy0wAuXb45xpJn0boeb02MTfyQQNSXB-wXss-okt_cKn7w3haz-13ycJ-akyntJxA4qXr5jSc_PnlyYalbQ9MujdEh5by2Qwlk1G_WWzNN8cbEm_DnTGV]--></g></svg>