<svg xmlns="http://www.w3.org/2000/svg" xmlns:xlink="http://www.w3.org/1999/xlink" contentStyleType="text/css" height="195px" preserveAspectRatio="none" style="width:444px;height:195px;background:#FFFFFF;" version="1.1" viewBox="0 0 444 195" width="444px" zoomAndPan="magnify"><defs/><g><g id="State_0"><rect fill="#F1F1F1" height="50.2656" rx="12.5" ry="12.5" style="stroke:#181818;stroke-width:0.5;" width="142.6836" x="7" y="7"/><line style="stroke:#181818;stroke-width:0.5;" x1="7" x2="149.6836" y1="33.2969" y2="33.2969"/><text fill="#000000" font-family="sans-serif" font-size="14" lengthAdjust="spacing" textLength="52.9648" x="51.8594" y="24.9951">State_0</text><text fill="#000000" font-family="sans-serif" font-size="12" lengthAdjust="spacing" textLength="122.6836" x="12" y="49.4355">Dit is een wachtstap</text></g><g id="State_10"><rect fill="#F1F1F1" height="50.2656" rx="12.5" ry="12.5" style="stroke:#181818;stroke-width:0.5;" width="130.5313" x="13.08" y="134.26"/><line style="stroke:#181818;stroke-width:0.5;" x1="13.08" x2="143.6113" y1="160.5569" y2="160.5569"/><text fill="#000000" font-family="sans-serif" font-size="14" lengthAdjust="spacing" textLength="61.8721" x="47.4096" y="152.2551">State_10</text><text fill="#000000" font-family="sans-serif" font-size="12" lengthAdjust="spacing" textLength="110.5313" x="18.08" y="176.6955">-water verwarmen</text></g><g id="State_20"><rect fill="#F1F1F1" height="50.2656" rx="12.5" ry="12.5" style="stroke:#181818;stroke-width:0.5;" width="81.8721" x="355.41" y="134.26"/><line style="stroke:#181818;stroke-width:0.5;" x1="355.41" x2="437.2821" y1="160.5569" y2="160.5569"/><text fill="#000000" font-family="sans-serif" font-size="14" lengthAdjust="spacing" textLength="61.8721" x="365.41" y="152.2551">State_20</text><text fill="#000000" font-family="sans-serif" font-size="12" lengthAdjust="spacing" textLength="3.8145" x="360.41" y="176.6955">&#160;</text></g><!--link State_0 to State_10--><g id="link_State_0_State_10"><path d="M78.34,57.58 C78.34,79.65 78.34,105.96 78.34,128.01 " fill="none" id="State_0-to-State_10" style="stroke:#181818;stroke-width:1.0;"/><polygon fill="#181818" points="78.34,134.01,82.34,125.01,78.34,129.01,74.34,125.01,78.34,134.01" style="stroke:#181818;stroke-width:1.0;"/><text fill="#000000" font-family="sans-serif" font-size="13" lengthAdjust="spacing" textLength="60.0933" x="79.34" y="100.3269">Power on</text></g><!--link State_10 to State_20--><g id="link_State_10_State_20"><path d="M143.99,174.73 C154.64,176.67 165.59,178.34 176.01,179.4 C241.01,185.98 258.25,188.07 323.01,179.4 C333.6,177.98 339.0345,177.0133 349.4445,174.2233 " fill="none" id="State_10-to-State_20" style="stroke:#181818;stroke-width:1.0;"/><polygon fill="#181818" points="355.24,172.67,345.5113,171.1362,350.4104,173.9644,347.5823,178.8635,355.24,172.67" style="stroke:#181818;stroke-width:1.0;"/><text fill="#000000" font-family="sans-serif" font-size="13" lengthAdjust="spacing" textLength="145.9707" x="177.01" y="175.4669">Water op temperatuur</text></g><!--link State_20 to State_10--><g id="link_State_20_State_10"><path d="M355.16,159.4 C301.57,159.4 213.3,159.4 149.85,159.4 " fill="none" id="State_20-to-State_10" style="stroke:#181818;stroke-width:1.0;"/><polygon fill="#181818" points="143.85,159.4,152.85,163.4,148.85,159.4,152.85,155.4,143.85,159.4" style="stroke:#181818;stroke-width:1.0;"/><text fill="#000000" font-family="sans-serif" font-size="13" lengthAdjust="spacing" textLength="175.0493" x="162.01" y="152.4669">Water niet op temperatuur</text></g><!--SRC=[NOmn2eGm44NxdE9V8A2M5bjv0C72KWOPs1GcOHmtrzzib0tQpV3-UvEIyjAWn-0KRWUpHwBrhRjID5F1RUOsvKlmOKaa6_iBTJ_LcEjhOEqBLS8OKfQ2hw4_B-PSeY52UOiifCSXjNnldLllM1_25m00]--></g></svg>