<svg xmlns="http://www.w3.org/2000/svg" xmlns:xlink="http://www.w3.org/1999/xlink" contentStyleType="text/css" height="519px" preserveAspectRatio="none" style="width:632px;height:519px;background:#FFFFFF;" version="1.1" viewBox="0 0 632 519" width="632px" zoomAndPan="magnify"><defs/><g><line style="stroke:#181818;stroke-width:0.5;stroke-dasharray:5.0,5.0;" x1="46" x2="46" y1="36.2969" y2="483.8906"/><line style="stroke:#181818;stroke-width:0.5;stroke-dasharray:5.0,5.0;" x1="136.3438" x2="136.3438" y1="36.2969" y2="483.8906"/><line style="stroke:#181818;stroke-width:0.5;stroke-dasharray:5.0,5.0;" x1="512.8647" x2="512.8647" y1="36.2969" y2="483.8906"/><line style="stroke:#181818;stroke-width:0.5;stroke-dasharray:5.0,5.0;" x1="593.1401" x2="593.1401" y1="36.2969" y2="483.8906"/><rect fill="#E2E2F0" height="30.2969" rx="2.5" ry="2.5" style="stroke:#181818;stroke-width:0.5;" width="83.3438" x="5" y="5"/><text fill="#000000" font-family="sans-serif" font-size="14" lengthAdjust="spacing" textLength="69.3438" x="12" y="24.9951">Gebruiker</text><rect fill="#E2E2F0" height="30.2969" rx="2.5" ry="2.5" style="stroke:#181818;stroke-width:0.5;" width="83.3438" x="5" y="482.8906"/><text fill="#000000" font-family="sans-serif" font-size="14" lengthAdjust="spacing" textLength="69.3438" x="12" y="502.8857">Gebruiker</text><rect fill="#E2E2F0" height="30.2969" rx="2.5" ry="2.5" style="stroke:#181818;stroke-width:0.5;" width="76.2754" x="98.3438" y="5"/><text fill="#000000" font-family="sans-serif" font-size="14" lengthAdjust="spacing" textLength="62.2754" x="105.3438" y="24.9951">Proces_1</text><rect fill="#E2E2F0" height="30.2969" rx="2.5" ry="2.5" style="stroke:#181818;stroke-width:0.5;" width="76.2754" x="98.3438" y="482.8906"/><text fill="#000000" font-family="sans-serif" font-size="14" lengthAdjust="spacing" textLength="62.2754" x="105.3438" y="502.8857">Proces_1</text><rect fill="#E2E2F0" height="30.2969" rx="2.5" ry="2.5" style="stroke:#181818;stroke-width:0.5;" width="76.2754" x="474.8647" y="5"/><text fill="#000000" font-family="sans-serif" font-size="14" lengthAdjust="spacing" textLength="62.2754" x="481.8647" y="24.9951">Proces_2</text><rect fill="#E2E2F0" height="30.2969" rx="2.5" ry="2.5" style="stroke:#181818;stroke-width:0.5;" width="76.2754" x="474.8647" y="482.8906"/><text fill="#000000" font-family="sans-serif" font-size="14" lengthAdjust="spacing" textLength="62.2754" x="481.8647" y="502.8857">Proces_2</text><rect fill="#E2E2F0" height="30.2969" rx="2.5" ry="2.5" style="stroke:#181818;stroke-width:0.5;" width="65.4883" x="561.1401" y="5"/><text fill="#000000" font-family="sans-serif" font-size="14" lengthAdjust="spacing" textLength="51.4883" x="568.1401" y="24.9951">Functie</text><rect fill="#E2E2F0" height="30.2969" rx="2.5" ry="2.5" style="stroke:#181818;stroke-width:0.5;" width="65.4883" x="561.1401" y="482.8906"/><text fill="#000000" font-family="sans-serif" font-size="14" lengthAdjust="spacing" textLength="51.4883" x="568.1401" y="502.8857">Functie</text><polygon fill="#181818" points="124.4814,63.4297,134.4814,67.4297,124.4814,71.4297,128.4814,67.4297" style="stroke:#181818;stroke-width:1.0;"/><line style="stroke:#181818;stroke-width:1.0;" x1="46.6719" x2="130.4814" y1="67.4297" y2="67.4297"/><text fill="#000000" font-family="sans-serif" font-size="13" lengthAdjust="spacing" textLength="60.0933" x="53.6719" y="62.3638">Power on</text><polygon fill="#181818" points="501.0024,92.5625,511.0024,96.5625,501.0024,100.5625,505.0024,96.5625" style="stroke:#181818;stroke-width:1.0;"/><line style="stroke:#181818;stroke-width:1.0;" x1="136.4814" x2="507.0024" y1="96.5625" y2="96.5625"/><text fill="#000000" font-family="sans-serif" font-size="13" lengthAdjust="spacing" textLength="110.2207" x="143.4814" y="91.4966">water opwarmen</text><polygon fill="#181818" points="581.8843,121.6953,591.8843,125.6953,581.8843,129.6953,585.8843,125.6953" style="stroke:#181818;stroke-width:1.0;"/><line style="stroke:#181818;stroke-width:1.0;" x1="136.4814" x2="587.8843" y1="125.6953" y2="125.6953"/><text fill="#000000" font-family="sans-serif" font-size="13" lengthAdjust="spacing" textLength="112.3027" x="143.4814" y="120.6294">Spoelen machine</text><polygon fill="#181818" points="147.4814,150.8281,137.4814,154.8281,147.4814,158.8281,143.4814,154.8281" style="stroke:#181818;stroke-width:1.0;"/><line style="stroke:#181818;stroke-width:1.0;stroke-dasharray:2.0,2.0;" x1="141.4814" x2="592.8843" y1="154.8281" y2="154.8281"/><text fill="#000000" font-family="sans-serif" font-size="13" lengthAdjust="spacing" textLength="119.0884" x="153.4814" y="149.7622">machine gespoeld</text><polygon fill="#181818" points="147.4814,179.9609,137.4814,183.9609,147.4814,187.9609,143.4814,183.9609" style="stroke:#181818;stroke-width:1.0;"/><line style="stroke:#181818;stroke-width:1.0;stroke-dasharray:2.0,2.0;" x1="141.4814" x2="512.0024" y1="183.9609" y2="183.9609"/><text fill="#000000" font-family="sans-serif" font-size="13" lengthAdjust="spacing" textLength="118.4854" x="153.4814" y="178.895">water opgewarmd</text><line style="stroke:#181818;stroke-width:1.0;" x1="136.4814" x2="178.4814" y1="213.0938" y2="213.0938"/><line style="stroke:#181818;stroke-width:1.0;" x1="178.4814" x2="178.4814" y1="213.0938" y2="226.0938"/><line style="stroke:#181818;stroke-width:1.0;" x1="137.4814" x2="178.4814" y1="226.0938" y2="226.0938"/><polygon fill="#181818" points="147.4814,222.0938,137.4814,226.0938,147.4814,230.0938,143.4814,226.0938" style="stroke:#181818;stroke-width:1.0;"/><text fill="#000000" font-family="sans-serif" font-size="13" lengthAdjust="spacing" textLength="362.521" x="143.4814" y="208.0278">Bonen aanwezig en melk aanwezig en voldoende water</text><line style="stroke:#181818;stroke-width:1.0;" x1="136.4814" x2="178.4814" y1="255.2266" y2="255.2266"/><line style="stroke:#181818;stroke-width:1.0;" x1="178.4814" x2="178.4814" y1="255.2266" y2="268.2266"/><line style="stroke:#181818;stroke-width:1.0;" x1="137.4814" x2="178.4814" y1="268.2266" y2="268.2266"/><polygon fill="#181818" points="147.4814,264.2266,137.4814,268.2266,147.4814,272.2266,143.4814,268.2266" style="stroke:#181818;stroke-width:1.0;"/><text fill="#000000" font-family="sans-serif" font-size="13" lengthAdjust="spacing" textLength="102.7432" x="143.4814" y="250.1606">beker aanwezig</text><polygon fill="#181818" points="124.4814,293.3594,134.4814,297.3594,124.4814,301.3594,128.4814,297.3594" style="stroke:#181818;stroke-width:1.0;"/><line style="stroke:#181818;stroke-width:1.0;" x1="46.6719" x2="130.4814" y1="297.3594" y2="297.3594"/><text fill="#000000" font-family="sans-serif" font-size="13" lengthAdjust="spacing" textLength="30.2783" x="53.6719" y="292.2935">start</text><line style="stroke:#181818;stroke-width:1.0;" x1="136.4814" x2="178.4814" y1="326.4922" y2="326.4922"/><line style="stroke:#181818;stroke-width:1.0;" x1="178.4814" x2="178.4814" y1="326.4922" y2="339.4922"/><line style="stroke:#181818;stroke-width:1.0;" x1="137.4814" x2="178.4814" y1="339.4922" y2="339.4922"/><polygon fill="#181818" points="147.4814,335.4922,137.4814,339.4922,147.4814,343.4922,143.4814,339.4922" style="stroke:#181818;stroke-width:1.0;"/><text fill="#000000" font-family="sans-serif" font-size="13" lengthAdjust="spacing" textLength="262.7422" x="143.4814" y="321.4263">Melk word verwarmd en bonen gemalen</text><line style="stroke:#181818;stroke-width:1.0;" x1="136.4814" x2="178.4814" y1="368.625" y2="368.625"/><line style="stroke:#181818;stroke-width:1.0;" x1="178.4814" x2="178.4814" y1="368.625" y2="381.625"/><line style="stroke:#181818;stroke-width:1.0;" x1="137.4814" x2="178.4814" y1="381.625" y2="381.625"/><polygon fill="#181818" points="147.4814,377.625,137.4814,381.625,147.4814,385.625,143.4814,381.625" style="stroke:#181818;stroke-width:1.0;"/><text fill="#000000" font-family="sans-serif" font-size="13" lengthAdjust="spacing" textLength="219.667" x="143.4814" y="363.5591">Melk word verwarmd en gepompt</text><line style="stroke:#181818;stroke-width:1.0;" x1="136.4814" x2="178.4814" y1="410.7578" y2="410.7578"/><line style="stroke:#181818;stroke-width:1.0;" x1="178.4814" x2="178.4814" y1="410.7578" y2="423.7578"/><line style="stroke:#181818;stroke-width:1.0;" x1="137.4814" x2="178.4814" y1="423.7578" y2="423.7578"/><polygon fill="#181818" points="147.4814,419.7578,137.4814,423.7578,147.4814,427.7578,143.4814,423.7578" style="stroke:#181818;stroke-width:1.0;"/><text fill="#000000" font-family="sans-serif" font-size="13" lengthAdjust="spacing" textLength="214.4048" x="143.4814" y="405.6919">water word door bonen gepompt</text><line style="stroke:#181818;stroke-width:1.0;" x1="136.4814" x2="178.4814" y1="452.8906" y2="452.8906"/><line style="stroke:#181818;stroke-width:1.0;" x1="178.4814" x2="178.4814" y1="452.8906" y2="465.8906"/><line style="stroke:#181818;stroke-width:1.0;" x1="137.4814" x2="178.4814" y1="465.8906" y2="465.8906"/><polygon fill="#181818" points="147.4814,461.8906,137.4814,465.8906,147.4814,469.8906,143.4814,465.8906" style="stroke:#181818;stroke-width:1.0;"/><text fill="#000000" font-family="sans-serif" font-size="13" lengthAdjust="spacing" textLength="193.7559" x="143.4814" y="447.8247">kop koffie kan gepakt worden</text><!--SRC=[bP5DRi8m48NtFeKlmA8iMR1WKLQLa7e0vCGFDt8oOpa6IvmUZoaXL4sbMl9c_BqVZVTeuhdpY7grrOV8BSRZczuSE9SHaofdcZw9jTxeR98W8PiuW7vmxsTgKuU2VGP63zA3QRywWbAFfzKyi83VW7OOHM8dm_Kh-ansa6pxQqFXTambs1ZAk7PEImdq_cLmuTuooE9kkcZLG5RqK2grdwrjXet9nBHeyY7fcQFL5yHQNIeqjQN3O7fPux-q3e67i9nutrILMUOuPVsjyXpAFPtA9tbJSUDJTG7T0000]--></g></svg>